<svg xmlns="http://www.w3.org/2000/svg" width="192" height="192" viewBox="0 0 192 192">
  <defs>
    <linearGradient id="g" x1="0" y1="0" x2="1" y2="1">
      <stop offset="0%" stop-color="#863bff"/>
      <stop offset="100%" stop-color="#7e14ff"/>
    </linearGradient>
  </defs>
  <rect width="192" height="192" rx="32" fill="#0a0a0a"/>
  <circle cx="96" cy="64" r="36" fill="url(#g)"/>
  <path d="M56 52C56 32 68 22 96 22s40 10 40 30" fill="#0a0a0a"/>
  <rect x="84" y="96" width="24" height="12" fill="url(#g)"/>
  <path d="M44 172V120c0-24 14-40 52-40s52 16 52 40v52" fill="url(#g)"/>
  <path d="M72 80l24 32 24-32" fill="#0a0a0a"/>
  <rect x="90" y="104" width="12" height="40" rx="4" fill="#0a0a0a"/>
  <circle cx="80" cy="60" r="5" fill="#0a0a0a"/>
  <circle cx="112" cy="60" r="5" fill="#0a0a0a"/>
  <path d="M80 74c8 8 24 8 32 0" fill="none" stroke="#0a0a0a" stroke-width="5" stroke-linecap="round"/>
</svg>
