<svg xmlns="http://www.w3.org/2000/svg" width="48" height="48" viewBox="0 0 48 48" fill="none">
  <!-- Background -->
  <rect width="48" height="48" rx="8" fill="#0a0a0a"/>

  <!-- Body / Suit -->
  <path d="M14 36V30C14 24 16 20 24 20C32 20 34 24 34 30V36" fill="#1a1a1a" stroke="#00ff41" stroke-width="1.5"/>

  <!-- Collar / Tie -->
  <path d="M20 20L22 28H26L28 20" fill="#0a0a0a" stroke="#00ff41" stroke-width="1.2"/>
  <rect x="23" y="26" width="2" height="10" rx="1" fill="#00ff41"/>

  <!-- Head -->
  <ellipse cx="24" cy="14" rx="7" ry="7.5" fill="#1a1a1a" stroke="#00ff41" stroke-width="1.2"/>

  <!-- Hair -->
  <path d="M17 14C17 10 19 7 24 7C29 7 31 10 31 14" fill="#0a0a0a" stroke="#00ff41" stroke-width="1"/>

  <!-- Eyes -->
  <ellipse cx="21" cy="14" rx="1.2" ry="1.2" fill="#00ff41"/>
  <ellipse cx="27" cy="14" rx="1.2" ry="1.2" fill="#00ff41"/>

  <!-- Glasses -->
  <rect x="18.5" y="12" width="4" height="3.5" rx="1" fill="none" stroke="#00ff41" stroke-width="0.8"/>
  <rect x="25.5" y="12" width="4" height="3.5" rx="1" fill="none" stroke="#00ff41" stroke-width="0.8"/>
  <line x1="22.5" y1="13.5" x2="25.5" y2="13.5" stroke="#00ff41" stroke-width="0.8"/>

  <!-- Smile -->
  <path d="M21 17C22.5 18.5 25.5 18.5 27 17" fill="none" stroke="#00ff41" stroke-width="1" stroke-linecap="round"/>
</svg>
